<svg id="e9pycn51hwkh1"
	xmlns="http://www.w3.org/2000/svg"
	xmlns:xlink="http://www.w3.org/1999/xlink" viewBox="-100 -100 600 600" shape-rendering="geometricPrecision" text-rendering="geometricPrecision">
	<style>
		<![CDATA[#e9pycn51hwkh3_tr {animation: e9pycn51hwkh3_tr__tr 7500ms linear infinite alternate forwards}@keyframes e9pycn51hwkh3_tr__tr { 0% {transform: translate(200px,200px) rotate(0deg)} 54.666667% {transform: translate(200px,200px) rotate(0deg);animation-timing-function: cubic-bezier(0,0.980000,0.350000,0.975000)} 98.666667% {transform: translate(200px,200px) rotate(1440deg)} 100% {transform: translate(200px,200px) rotate(1440deg)} }#e9pycn51hwkh3 {animation: e9pycn51hwkh3_c_o 7500ms linear infinite alternate forwards}@keyframes e9pycn51hwkh3_c_o { 0% {opacity: 0} 54.666667% {opacity: 0} 66.666667% {opacity: 1} 100% {opacity: 1} }#e9pycn51hwkh6_to {animation: e9pycn51hwkh6_to__to 7500ms linear infinite alternate forwards}@keyframes e9pycn51hwkh6_to__to { 0% {transform: translate(325.306875px,148.863500px);animation-timing-function: cubic-bezier(0.805000,0.010000,0.580000,1)} 42.666667% {transform: translate(198.705750px,207.294495px)} 100% {transform: translate(198.705750px,207.294495px)} }#e9pycn51hwkh6_tr {animation: e9pycn51hwkh6_tr__tr 7500ms linear infinite alternate forwards}@keyframes e9pycn51hwkh6_tr__tr { 0% {transform: rotate(0deg);animation-timing-function: cubic-bezier(0.805000,0.010000,0.580000,1)} 28% {transform: rotate(135deg);animation-timing-function: cubic-bezier(0.360000,0.015000,0.995000,0.335000)} 66.666667% {transform: rotate(1935deg)} 100% {transform: rotate(1935deg)} }#e9pycn51hwkh6 {
           animation-name: e9pycn51hwkh6__tt, e9pycn51hwkh6_c_o;
           animation-duration: 7500ms;
           animation-fill-mode: forwards;
           animation-timing-function: linear;
           animation-direction: alternate;
           animation-iteration-count: infinite;  
        }@keyframes e9pycn51hwkh6__tt { 0% {transform: translate(-325.306875px,-148.863500px);animation-timing-function: cubic-bezier(0.805000,0.010000,0.580000,1)} 42.666667% {transform: translate(-444.151514px,-149.003432px)} 100% {transform: translate(-444.151514px,-149.003432px)} }@keyframes e9pycn51hwkh6_c_o { 0% {opacity: 1} 48% {opacity: 1} 66.666667% {opacity: 0} 100% {opacity: 0} }#e9pycn51hwkh7_to {animation: e9pycn51hwkh7_to__to 7500ms linear infinite alternate forwards}@keyframes e9pycn51hwkh7_to__to { 0% {transform: translate(257.137497px,333.895996px);animation-timing-function: cubic-bezier(0.805000,0.010000,0.580000,1)} 42.666667% {transform: translate(198.705750px,207.294495px)} 100% {transform: translate(198.705750px,207.294495px)} }#e9pycn51hwkh7_tr {animation: e9pycn51hwkh7_tr__tr 7500ms linear infinite alternate forwards}@keyframes e9pycn51hwkh7_tr__tr { 0% {transform: rotate(0deg);animation-timing-function: cubic-bezier(0.805000,0.010000,0.580000,1)} 28% {transform: rotate(-45deg);animation-timing-function: cubic-bezier(0.360000,0.015000,0.995000,0.335000)} 66.666667% {transform: rotate(1755deg)} 100% {transform: rotate(1755deg)} }#e9pycn51hwkh7 {
           animation-name: e9pycn51hwkh7__tt, e9pycn51hwkh7_c_o;
           animation-duration: 7500ms;
           animation-fill-mode: forwards;
           animation-timing-function: linear;
           animation-direction: alternate;
           animation-iteration-count: infinite;  
        }@keyframes e9pycn51hwkh7__tt { 0% {transform: translate(-257.137497px,-333.895996px);animation-timing-function: cubic-bezier(0.805000,0.010000,0.580000,1)} 42.666667% {transform: translate(-257.324261px,-214.724669px)} 100% {transform: translate(-257.324261px,-214.724669px)} }@keyframes e9pycn51hwkh7_c_o { 0% {opacity: 1} 48% {opacity: 1} 66.666667% {opacity: 0} 100% {opacity: 0} }#e9pycn51hwkh8_to {animation: e9pycn51hwkh8_to__to 7500ms linear infinite alternate forwards}@keyframes e9pycn51hwkh8_to__to { 0% {transform: translate(140.274498px,80.693001px);animation-timing-function: cubic-bezier(0.805000,0.010000,0.580000,1)} 42.666667% {transform: translate(198.705750px,207.293699px)} 100% {transform: translate(198.705750px,207.293699px)} }#e9pycn51hwkh8_tr {animation: e9pycn51hwkh8_tr__tr 7500ms linear infinite alternate forwards}@keyframes e9pycn51hwkh8_tr__tr { 0% {transform: rotate(0deg);animation-timing-function: cubic-bezier(0.805000,0.010000,0.580000,1)} 28% {transform: rotate(135deg);animation-timing-function: cubic-bezier(0.360000,0.015000,0.995000,0.335000)} 66.666667% {transform: rotate(1935deg)} 100% {transform: rotate(1935deg)} }#e9pycn51hwkh8 {
           animation-name: e9pycn51hwkh8__tt, e9pycn51hwkh8_c_o;
           animation-duration: 7500ms;
           animation-fill-mode: forwards;
           animation-timing-function: linear;
           animation-direction: alternate;
           animation-iteration-count: infinite;  
        }@keyframes e9pycn51hwkh8__tt { 0% {transform: translate(-140.274498px,-80.693001px);animation-timing-function: cubic-bezier(0.805000,0.010000,0.580000,1)} 42.666667% {transform: translate(-141.336738px,36.949469px)} 100% {transform: translate(-141.336738px,36.949469px)} }@keyframes e9pycn51hwkh8_c_o { 0% {opacity: 1} 48% {opacity: 1} 66.666667% {opacity: 0} 100% {opacity: 0} }#e9pycn51hwkh9_to {animation: e9pycn51hwkh9_to__to 7500ms linear infinite alternate forwards}@keyframes e9pycn51hwkh9_to__to { 0% {transform: translate(72.104748px,265.725014px);animation-timing-function: cubic-bezier(0.805000,0.010000,0.580000,1)} 42.666667% {transform: translate(198.705750px,207.294495px)} 100% {transform: translate(198.705750px,207.294495px)} }#e9pycn51hwkh9_tr {animation: e9pycn51hwkh9_tr__tr 7500ms linear infinite alternate forwards}@keyframes e9pycn51hwkh9_tr__tr { 0% {transform: rotate(0deg);animation-timing-function: cubic-bezier(0.805000,0.010000,0.580000,1)} 28% {transform: rotate(-45deg);animation-timing-function: cubic-bezier(0.360000,0.015000,0.995000,0.335000)} 66.666667% {transform: rotate(1755deg)} 100% {transform: rotate(1755deg)} }#e9pycn51hwkh9 {
           animation-name: e9pycn51hwkh9__tt, e9pycn51hwkh9_c_o;
           animation-duration: 7500ms;
           animation-fill-mode: forwards;
           animation-timing-function: linear;
           animation-direction: alternate;
           animation-iteration-count: infinite;  
        }@keyframes e9pycn51hwkh9__tt { 0% {transform: translate(-72.104748px,-265.725014px);animation-timing-function: cubic-bezier(0.805000,0.010000,0.580000,1)} 42.666667% {transform: translate(-190.073537px,-264.336444px)} 100% {transform: translate(-190.073537px,-264.336444px)} }@keyframes e9pycn51hwkh9_c_o { 0% {opacity: 1} 48% {opacity: 1} 66.666667% {opacity: 0} 100% {opacity: 0} }]]>
	</style>
	<g id="e9pycn51hwkh2">
		<g id="e9pycn51hwkh3_tr" transform="translate(200,200) rotate(0)">
			<path id="e9pycn51hwkh3" d="M214.820787,55.372923C214.455963,55.388877,214.091139,55.427168,213.720997,55.444186C210.537563,55.557994,207.342429,55.721792,204.157932,56.027053C203.129405,56.119589,202.116832,56.353587,201.093624,56.462076C198.579211,56.755637,196.091388,57.142797,193.593994,57.544848C191.221043,57.930945,188.853410,58.339377,186.485778,58.835027C183.421470,59.460439,180.406089,60.195405,177.407726,60.984616C176.536616,61.223932,175.644233,61.365394,174.773123,61.610029L174.724196,61.751491C144.317243,70.389201,117.153286,87.619950,96.237072,111.028242L113.886889,162.095076C113.886889,162.095076,202.714591,140.569403,203.334685,140.444959C205.887388,139.917400,208.440092,139.519604,210.998113,139.236679C211.455473,139.182434,211.912832,139.165416,212.363810,139.122871C214.747397,138.916528,217.142684,138.785702,219.531589,138.775065C220.086802,138.775065,220.652651,138.796338,221.207864,138.808038C223.493597,138.846328,225.779331,138.977154,228.043791,139.194134C228.686222,139.265397,229.333970,139.357933,229.975337,139.433450C232.196189,139.711057,234.410659,140.058863,236.610239,140.516222C237.268624,140.647048,237.911054,140.809783,238.558803,140.956563C240.502048,141.413923,242.422958,141.908509,244.317276,142.496694C244.844835,142.660493,245.345803,142.839182,245.857407,143.008299C247.844262,143.666684,249.808780,144.368677,251.746707,145.180224C252.181730,145.359977,252.607181,145.571639,253.047522,145.763091C254.973750,146.606547,256.890405,147.504248,258.751751,148.495548C259.279310,148.783791,259.774960,149.089051,260.291882,149.382612C262.006448,150.340940,263.715696,151.336494,265.369635,152.429902C266.087583,152.908534,266.778940,153.442474,267.480934,153.943443C268.874284,154.917724,270.262317,155.907961,271.612059,156.991796C272.483169,157.704426,273.321307,158.477682,274.164762,159.217966C275.280507,160.192248,276.401569,161.161212,277.468386,162.195057C278.339496,163.054467,279.155298,163.963868,279.988117,164.845614C280.967717,165.907113,281.969653,166.940958,282.910963,168.062020C283.651247,168.938449,284.320268,169.863804,285.028643,170.777459C285.980589,172.007011,286.938916,173.226990,287.836617,174.543760C288.430121,175.420188,288.980016,176.340225,289.545865,177.232608C290.443566,178.647231,291.330630,180.078872,292.131541,181.531786C292.681436,182.527340,293.176022,183.556931,293.687626,184.580139C294.384302,185.973490,295.065023,187.377477,295.669162,188.793164C296.142476,189.892954,296.556227,191.002316,296.985932,192.118060C297.518809,193.532683,298.030413,194.943052,298.487773,196.368312C298.841960,197.489374,299.151475,198.627454,299.456736,199.769789C299.859851,201.239721,300.235311,202.713907,300.544826,204.199793C300.778824,205.304901,300.963895,206.420645,301.154284,207.541708C301.410618,209.097793,301.649934,210.644306,301.812669,212.195074C301.938177,213.283163,302.013694,214.388271,302.074321,215.488061C302.188129,217.066483,302.280665,218.650223,302.292364,220.228644C302.308319,221.355025,302.271092,222.493105,302.232801,223.624804C302.189193,225.180889,302.140266,226.727402,301.998804,228.272851C301.890314,229.470495,301.721197,230.684092,301.558462,231.892372C301.352119,233.437821,301.172366,234.983271,300.877741,236.518084C300.763933,237.111587,300.622471,237.698709,300.491645,238.297531C300.088530,240.197168,299.642871,242.085105,299.092976,243.958151C298.929178,244.546336,298.750488,245.117504,298.576054,245.699307C297.971914,247.609581,297.313529,249.503899,296.578563,251.365246C296.393492,251.838559,296.213739,252.323573,296.023350,252.796887C295.146922,254.892231,294.200294,256.954603,293.154749,258.979748C293.046260,259.186091,292.959042,259.398816,292.855870,259.599842C290.521210,264.052182,287.739827,268.297115,284.567029,272.302733C284.132006,272.852628,283.669329,273.385504,283.222605,273.924763C282.068571,275.307477,280.865609,276.651901,279.613721,277.968671C279.058508,278.551538,278.508613,279.138660,277.937445,279.699191C276.522822,281.097860,275.036936,282.458238,273.490423,283.776071C273.120281,284.102605,272.755457,284.451474,272.364043,284.783326C270.415479,286.383020,268.374380,287.901879,266.247127,289.344156C265.730204,289.693026,265.196264,290.007859,264.679342,290.351410C263.046675,291.395892,261.408690,292.392510,259.732415,293.323183C258.976176,293.742252,258.208238,294.150684,257.430727,294.552735C255.890596,295.341946,254.339829,296.059894,252.761407,296.745933C252.005168,297.077784,251.259566,297.431972,250.496946,297.736169C248.270776,298.633870,246.018015,299.440099,243.753554,300.119756C243.072833,300.326099,242.376158,300.473943,241.691183,300.659014C239.998953,301.132328,238.289705,301.562033,236.580457,301.910903C235.644466,302.111928,234.708475,302.253391,233.772484,302.411871C202.755008,307.690649,170.095294,294.961167,151.421204,267.138826C146.065845,259.148864,142.320816,250.555826,140.046782,241.738362L140.101027,241.596900C138.005683,233.487812,137.107982,224.975609,137.614269,216.283654C137.630223,215.929466,137.673832,215.581660,137.706804,215.222154C137.870603,212.925785,138.147146,210.607079,138.511969,208.293692C138.625777,207.607653,138.730013,206.910977,138.854457,206.219620C139.245872,204.101940,139.720249,202.023614,140.269080,199.971878C140.377570,199.531537,140.464788,199.095450,140.595614,198.665745C141.259317,196.292794,142.048527,193.979407,142.909001,191.716009C143.219580,190.910844,143.583340,190.132270,143.904556,189.332423C144.529968,187.841218,145.189416,186.355332,145.891410,184.907736C146.326433,184.031308,146.767838,183.177216,147.219879,182.316742C147.291142,182.185916,147.371978,182.060408,147.443241,181.925328L97.241135,194.769681L77.244957,136.888192C76.249403,138.564467,75.258103,140.246061,74.339130,141.944672C73.163823,144.094261,72.020424,146.243851,70.942971,148.454066C69.805954,150.788726,68.776363,153.172313,67.747837,155.551646C66.441703,158.572345,65.217469,161.641971,64.084707,164.776478C62.979599,167.824832,61.929800,170.882758,61.009763,173.985356C60.416259,175.993483,59.894019,178.029264,59.377096,180.053345C58.593204,183.128289,57.901846,186.236206,57.287070,189.354759C57.047754,190.563038,56.682930,191.722391,56.476587,192.951943C56.335125,193.730518,56.270243,194.508029,56.144735,195.281285C56.036246,195.977961,55.959664,196.664000,55.851175,197.355357C55.404451,200.463274,55.028991,203.571190,54.751385,206.662089C54.664167,207.549153,54.604604,208.441536,54.545041,209.340300C54.321680,212.355681,54.190854,215.354044,54.136609,218.353471C54.120654,219.219263,54.093000,220.078673,54.093000,220.944465C54.093000,224.237452,54.180217,227.508104,54.370607,230.762801C54.391879,231.312696,54.403579,231.862591,54.441869,232.417804C54.703522,236.276640,55.067282,240.102505,55.601222,243.901779C55.688440,244.489964,55.802248,245.071768,55.894783,245.654635C56.341506,248.675334,56.869065,251.690715,57.489159,254.667806C57.788038,256.159010,58.152862,257.639578,58.501732,259.120146C58.985682,261.182518,59.508986,263.240635,60.069517,265.280671C60.542831,266.995237,61.038481,268.715121,61.571358,270.429686C62.126571,272.214452,62.741347,273.977944,63.356123,275.736119C63.981535,277.537902,64.585675,279.338622,65.282350,281.124451C66.115170,283.274040,67.045843,285.386402,67.971198,287.497700C69.163523,290.218457,70.447321,292.917941,71.781108,295.590834C72.559683,297.136284,73.337194,298.676415,74.154059,300.189955C75.123023,301.953448,76.123895,303.706304,77.164122,305.452779C78.084159,307.008864,79.036104,308.538359,80.010386,310.062536C80.750670,311.237843,81.419691,312.446123,82.198266,313.605476C82.475872,314.013908,82.791769,314.378732,83.069376,314.780783C85.513590,318.351377,88.120538,321.791145,90.830658,325.164968C91.892158,326.493438,92.969611,327.787871,94.063019,329.078050C96.621041,332.055141,99.243944,334.977986,102.004054,337.775324L102.020009,337.737033C142.419733,378.676016,200.867071,395.128190,255.766152,382.975194L255.711907,383.083684C257.768960,382.626325,259.771769,382.032821,261.791596,381.499944C265.296245,380.585226,268.774303,379.551381,272.235344,378.409046C274.901856,377.511345,277.569431,376.624281,280.192334,375.584054C282.357877,374.740598,284.491512,373.799289,286.625147,372.863297C289.090633,371.763508,291.528465,370.621173,293.945024,369.412893C295.855297,368.454566,297.781525,367.513256,299.665207,366.474093C303.676142,364.270259,307.622197,361.934535,311.432107,359.409486C311.730986,359.213779,312.041565,359.066999,312.329807,358.870228C313.337062,358.195888,314.207108,357.417314,315.193090,356.736593C318.044672,354.733784,320.842010,352.659713,323.569148,350.471833C325.076307,349.274190,326.562193,348.049956,328.016171,346.798067C330.639074,344.550624,333.175823,342.204264,335.641309,339.799405C336.692172,338.770878,337.796216,337.801914,338.819425,336.762751C342.058167,333.437855,345.127793,329.949160,348.087866,326.361548C349.100438,325.131996,350.036430,323.863090,351.010711,322.611201C353.144346,319.852154,355.196082,317.037798,357.165918,314.137289C357.993419,312.918373,358.820921,311.704775,359.615450,310.458205C362.004355,306.730194,364.263497,302.904330,366.364159,298.963594C366.533276,298.637061,366.734301,298.331800,366.897036,298.005266C369.248714,293.531653,371.360013,288.911260,373.308577,284.181313C373.580865,283.500592,373.820181,282.815617,374.081833,282.134896C375.606010,278.260105,376.987661,274.319369,378.234231,270.297797C378.620327,269.068245,378.974515,267.848265,379.322321,266.618713C380.329575,263.032164,381.221958,259.396689,382.005850,255.700587C382.278139,254.415726,382.587654,253.131929,382.833352,251.836432C382.980132,251.031267,383.203494,250.242056,383.344956,249.425191C383.692762,247.422382,383.791679,245.452546,384.074604,243.455056C384.444746,240.701327,384.842542,237.952916,385.070158,235.176851C385.314792,232.330586,385.402010,229.527931,385.499863,226.697620C385.592399,224.139599,385.684934,221.586895,385.651962,219.018237C385.613671,216.062419,385.450937,213.140637,385.248847,210.217792C385.096749,207.757624,384.922314,205.314474,384.660662,202.870260C384.334129,199.942097,383.887406,197.041587,383.408774,194.151714C383.005659,191.702182,382.586590,189.264350,382.080304,186.837155C381.476164,184.012163,380.774171,181.237161,380.033887,178.466414C379.375502,176.006246,378.711799,173.546078,377.933225,171.108247C377.067433,168.387490,376.093151,165.725233,375.086960,163.058721C374.199896,160.669816,373.290495,158.279848,372.278986,155.912215C371.108997,153.185077,369.802864,150.523883,368.479713,147.857372C367.407577,145.685447,366.351396,143.502885,365.170771,141.353296C363.608303,138.522986,361.910755,135.796911,360.190871,133.064455C359.293171,131.627496,358.542250,130.146928,357.594559,128.732304C357.186127,128.122846,356.718131,127.556997,356.304380,126.952857C355.493897,125.777550,354.644059,124.639470,353.800604,123.491817C351.651014,120.535999,349.414208,117.668462,347.111457,114.892397C346.327564,113.967042,345.581962,113.020414,344.776797,112.116332C341.598681,108.453202,338.300375,104.927280,334.849971,101.606638C334.605337,101.367322,334.338366,101.149279,334.099050,100.925917C330.828399,97.812683,327.426922,94.879201,323.948863,92.081863C323.051162,91.352216,322.147080,90.634268,321.244061,89.942910C317.684103,87.189182,314.055010,84.571597,310.304663,82.132701C309.978129,81.926358,309.679250,81.685978,309.346335,81.474317C305.356672,78.921613,301.242565,76.597589,297.067831,74.415028C295.848915,73.772597,294.618299,73.168457,293.378111,72.553681C289.725618,70.751898,286.041216,69.080941,282.280232,67.568464C281.506976,67.257885,280.756056,66.893061,279.978545,66.594182C275.494295,64.853026,270.921765,63.361821,266.334344,62.033352C265.159037,61.685546,263.982666,61.374967,262.807359,61.064388C253.048586,58.452122,243.088788,56.732238,233.031136,55.920691C231.894119,55.833473,230.766675,55.751574,229.634977,55.681375C226.032474,55.463331,222.428907,55.333569,218.821086,55.333569C217.466026,55.317614,216.142875,55.334632,214.820787,55.372923" transform="translate(-219.875888,-221.107818)" opacity="0" fill="rgb(256,256,256)" stroke="none" stroke-width="1"/>
		</g>
		<g id="e9pycn51hwkh4">
			<g id="e9pycn51hwkh5" transform="matrix(1 0 0 1 1.29425049000000 -7.29449463000000)">
				<g id="e9pycn51hwkh6_to" transform="translate(325.306875,148.863500)">
					<g id="e9pycn51hwkh6_tr" transform="rotate(0)">
						<path id="e9pycn51hwkh6" d="M326.049000,265.726000L324.253000,265.726000C260.734000,200.793000,260.734000,96.933000,324.253000,32L326.049000,32L327.306000,32L374,78.746000L374,82.162000C338.812000,119.167000,338.812000,177.302000,374,214.307000L374,217.723000L327.307000,265.727000L325.511000,265.727000" transform="translate(-325.306875,-148.863500)" fill="rgb(256,256,256)" stroke="none" stroke-width="1"/>
					</g>
				</g>
				<g id="e9pycn51hwkh7_to" transform="translate(257.137497,333.895996)">
					<g id="e9pycn51hwkh7_tr" transform="rotate(0)">
						<path id="e9pycn51hwkh7" d="M257.047000,382.589000C213.352000,382.529000,171.425000,365.527000,140.275000,335.236000L140.275000,333.449000L140.275000,331.662000L187.273000,285.203000L189.081000,285.203000L190.708000,285.203000C227.853000,320.192000,286.243000,320.192000,323.387000,285.203000L325.195000,285.203000L326.822000,285.203000L374,331.662000L374,333.449000L373.096000,335.236000C341.870000,365.347000,299.946000,382.155000,256.324000,382.052000" transform="translate(-257.137497,-333.895996)" fill="rgb(256,256,256)" stroke="none" stroke-width="1"/>
					</g>
				</g>
				<g id="e9pycn51hwkh8_to" transform="translate(140.274498,80.693001)">
					<g id="e9pycn51hwkh8_tr" transform="rotate(0)">
						<path id="e9pycn51hwkh8" d="M140.365000,129.386000C96.698000,129.375000,54.751000,112.614000,23.412000,82.655000L23.412000,80.871000L23.412000,79.087000L70.483000,32L72.293000,32L73.922000,32C91.746000,49.037000,115.531000,58.679000,140.364000,58.933000C165.261000,58.725000,189.120000,49.080000,206.989000,32L208.618000,32L210.428000,32L257.137000,79.088000L257.137000,80.872000L257.137000,82.656000C225.844000,112.571000,183.970000,129.328000,140.365000,129.386000" transform="translate(-140.274498,-80.693001)" fill="rgb(256,256,256)" stroke="none" stroke-width="1"/>
					</g>
				</g>
				<g id="e9pycn51hwkh9_to" transform="translate(72.104748,265.725014)">
					<g id="e9pycn51hwkh9_tr" transform="rotate(0)">
						<path id="e9pycn51hwkh9" d="M72.182000,382.588000L70.561000,382.588000C7.695000,317.461000,7.695000,213.989000,70.561000,148.862000L72.182000,148.862000L72.182000,148.862000L73.983000,148.862000L120.798000,195.860000L120.798000,199.294000C85.518000,236.499000,85.518000,294.949000,120.798000,332.154000L120.798000,335.588000L73.983000,382.586000L72.182000,382.586000L72.182000,382.588000" transform="translate(-72.104748,-265.725014)" fill="rgb(256,256,256)" stroke="none" stroke-width="1"/>
					</g>
				</g>
			</g>
		</g>
	</g>
</svg>