<?xml version="1.0" encoding="utf-8"?>
<!-- Generator: Adobe Illustrator 17.0.0, SVG Export Plug-In . SVG Version: 6.00 Build 0)  -->
<!DOCTYPE svg PUBLIC "-//W3C//DTD SVG 1.1//EN" "http://www.w3.org/Graphics/SVG/1.1/DTD/svg11.dtd">
<svg version="1.1" id="Layer_1" xmlns="http://www.w3.org/2000/svg" xmlns:xlink="http://www.w3.org/1999/xlink" x="0px" y="0px"
	 width="437.952px" height="157.229px" viewBox="0 0 437.952 157.229" enable-background="new 0 0 437.952 157.229"
	 xml:space="preserve">
<g id="Layer_1_1_">
</g>
<g id="Layer_3">
	<g>
		<g>
			
				<linearGradient id="SVGID_1_" gradientUnits="userSpaceOnUse" x1="454.1138" y1="94.6148" x2="36.3827" y2="-129.0353" gradientTransform="matrix(1 0 0 -1 -56 12.229)">
				<stop  offset="0" style="stop-color:#6261AB"/>
				<stop  offset="1" style="stop-color:#4F4588"/>
			</linearGradient>
			<path fill="url(#SVGID_1_)" d="M173.477,9.472v138.285c0,1.639-0.988,3.113-2.507,3.741c-1.536,0.623-3.273,0.263-4.426-0.914
				l-31.578-42.785l-31.573,42.505c-0.788,0.948-1.959,1.394-3.17,1.496c-1.217,0-2.387-0.565-3.158-1.536L47.107,74.827
				l14.998,35.2c0.748,1.496,0.485,3.313-0.651,4.546l-33.126,35.931c-0.788,0.851-1.862,1.297-2.97,1.297
				c-0.485,0-0.994-0.103-1.479-0.286c-1.553-0.605-2.564-2.102-2.564-3.758V9.472c0-1.554,0.885-2.953,2.285-3.638
				c1.394-0.668,3.05-0.503,4.261,0.468l91.685,84.928L95.294,60.383l0,0c0,0-2.776-2.644,0.64-5.197
				c0.006-0.006,0.017-0.011,0.023-0.023L166.949,6.28c1.234-0.948,2.873-1.114,4.266-0.445
				C172.609,6.519,173.477,7.936,173.477,9.472z"/>
		</g>
		<g enable-background="new    ">
			<path fill="#4F4688" d="M246.481,60.665v54.111h-3.548V70.745c-3.118,3.871-6.358,7.891-9.717,12.057
				c-3.361,4.167-6.572,8.158-9.637,11.976l-19.435-24.193v44.192h-3.548V60.665l22.983,28.386L246.481,60.665z"/>
			<path fill="#4F4688" d="M262.046,72.359v42.418h-3.548V72.359H262.046z"/>
			<path fill="#4F4688" d="M284.948,109.697c-1.722,2.043-3.912,3.467-6.572,4.273c-2.662,0.807-5.443,1.21-8.348,1.21v-3.549
				c2.258-0.053,4.517-0.375,6.774-0.965c2.259-0.59,4.059-1.663,5.403-3.22c1.021-1.073,1.666-2.374,1.936-3.903
				c0.268-1.528,0.402-3.07,0.402-4.627V72.359h3.549v26.612c0,1.882-0.215,3.79-0.645,5.726c-0.432,1.936-1.291,3.629-2.581,5.08
				L284.948,109.697z"/>
			<path fill="#4F4688" d="M317.407,71.955c3.016,0,5.844,0.564,8.482,1.693s4.928,2.675,6.867,4.637
				c1.939,1.963,3.474,4.262,4.605,6.896c1.131,2.635,1.697,5.457,1.697,8.467c0,3.012-0.566,5.82-1.697,8.428
				c-1.132,2.608-2.666,4.893-4.605,6.854c-1.939,1.963-4.229,3.508-6.867,4.637s-5.467,1.693-8.482,1.693
				c-3.018,0-5.832-0.564-8.443-1.693c-2.613-1.129-4.902-2.674-6.867-4.637c-1.967-1.962-3.516-4.246-4.646-6.854
				c-1.131-2.607-1.695-5.416-1.695-8.428c0-3.01,0.564-5.832,1.695-8.467c1.131-2.634,2.68-4.933,4.646-6.896
				c1.965-1.962,4.254-3.508,6.867-4.637C311.575,72.52,314.389,71.955,317.407,71.955z M335.511,93.648
				c0-2.526-0.47-4.891-1.408-7.096c-0.939-2.204-2.239-4.126-3.902-5.767c-1.664-1.64-3.594-2.93-5.794-3.871
				c-2.2-0.939-4.532-1.411-6.999-1.411c-2.521,0-4.882,0.472-7.082,1.411c-2.199,0.941-4.117,2.231-5.754,3.871
				c-1.635,1.641-2.923,3.563-3.861,5.767c-0.939,2.205-1.408,4.569-1.408,7.096c0,2.528,0.469,4.879,1.408,7.057
				c0.938,2.178,2.227,4.086,3.861,5.726c1.637,1.641,3.555,2.931,5.754,3.871c2.2,0.941,4.561,1.411,7.082,1.411
				c2.467,0,4.799-0.47,6.999-1.411c2.2-0.94,4.13-2.23,5.794-3.871c1.663-1.64,2.963-3.548,3.902-5.726
				C335.041,98.527,335.511,96.176,335.511,93.648z"/>
			<path fill="#4F4688" d="M350.913,98.487v16.29h-3.387V72.359h12.016c1.881,0,3.615,0.362,5.201,1.087
				c1.586,0.726,2.957,1.692,4.113,2.9c1.155,1.209,2.057,2.604,2.701,4.188c0.646,1.586,0.968,3.21,0.968,4.874
				c0,2.633-0.685,5.035-2.056,7.21s-3.32,3.746-5.848,4.713l4.436,5.653c0.646,0.809,1.357,1.736,2.137,2.786
				c0.779,1.051,1.573,2.101,2.379,3.15c0.807,1.051,1.6,2.087,2.38,3.109c0.778,1.023,1.464,1.939,2.056,2.746h-4.436l-12.58-16.29
				H350.913z M350.913,75.906v19.032h8.629c1.344,0,2.607-0.254,3.79-0.76c1.183-0.507,2.204-1.187,3.064-2.039
				c0.859-0.854,1.532-1.853,2.017-2.999c0.483-1.146,0.726-2.358,0.726-3.639c0-1.332-0.242-2.585-0.726-3.758
				c-0.484-1.172-1.157-2.185-2.017-3.038c-0.86-0.853-1.882-1.533-3.064-2.04s-2.446-0.76-3.79-0.76H350.913z"/>
			<path fill="#4F4688" d="M399.057,71.955c2.956,6.936,5.887,13.857,8.79,20.766s5.833,14.02,8.79,21.33l-3.064,0.807
				l-6.936-15.887H391.8l-6.936,16.048l-3.226-0.807L399.057,71.955z M405.266,95.987l-6.209-15.967
				c-0.377,0.968-0.766,1.976-1.17,3.023c-0.402,1.049-0.834,2.205-1.29,3.468c-0.457,1.264-0.981,2.661-1.572,4.193
				c-0.593,1.532-1.237,3.294-1.936,5.282H405.266z"/>
		</g>
	</g>
</g>
</svg>
