<?xml version="1.0"?>
<svg xmlns="http://www.w3.org/2000/svg" xmlns:xlink="http://www.w3.org/1999/xlink" xmlns:svgjs="http://svgjs.com/svgjs" version="1.1" width="512" height="512" x="0" y="0" viewBox="0 0 490 490" style="enable-background:new 0 0 512 512" xml:space="preserve" class=""><g>
<g xmlns="http://www.w3.org/2000/svg">
	<path d="M282.933,294.437c-4.729-2.852-10.876-1.332-13.728,3.398c-2.807,4.655-11.579,9.665-24.204,9.665   s-21.398-5.01-24.204-9.665c-2.853-4.729-8.996-6.253-13.729-3.398c-4.729,2.853-6.25,8.998-3.398,13.728   C210.754,319.911,226.977,327.5,245,327.5c18.023,0,34.246-7.589,41.331-19.335C289.183,303.435,287.661,297.29,282.933,294.437z" fill="#9f9f9f" data-original="#000000" style="" class=""/>
	<path d="M334.483,381.032c-56.519,26.61-122.448,26.61-178.967,0C124.063,406.892,104,446.102,104,490h282   C386,446.102,365.938,406.892,334.483,381.032z" fill="#9f9f9f" data-original="#000000" style="" class=""/>
	<circle cx="167.868" cy="213.466" r="20.132" fill="#9f9f9f" data-original="#000000" style="" class=""/>
	<circle cx="322.132" cy="213.466" r="20.132" fill="#9f9f9f" data-original="#000000" style="" class=""/>
	<path d="M428.268,242.667c4.71-16.579,7.232-34.078,7.232-52.167C435.5,85.29,350.21,0,245,0C139.79,0,54.5,85.29,54.5,190.5   c0,18.088,2.521,35.588,7.231,52.167C50.524,279.511,29.268,312.983,0,338.914c48.786,26.77,104.147,32.377,154.796,19.41   C181.647,372.787,212.364,381,245,381c32.636,0,63.353-8.213,90.204-22.676c50.648,12.967,106.01,7.359,154.796-19.41   C460.731,312.983,439.475,279.511,428.268,242.667z M245,361c-94.164,0-170.5-76.335-170.5-170.5   c0-19.271,3.201-37.794,9.095-55.071c102.121,56.46,220.689,56.46,322.811-0.001c5.893,17.277,9.095,35.8,9.095,55.071   C415.5,284.665,339.164,361,245,361z" fill="#9f9f9f" data-original="#000000" style="" class=""/>
</g>
<g xmlns="http://www.w3.org/2000/svg">
</g>
<g xmlns="http://www.w3.org/2000/svg">
</g>
<g xmlns="http://www.w3.org/2000/svg">
</g>
<g xmlns="http://www.w3.org/2000/svg">
</g>
<g xmlns="http://www.w3.org/2000/svg">
</g>
<g xmlns="http://www.w3.org/2000/svg">
</g>
<g xmlns="http://www.w3.org/2000/svg">
</g>
<g xmlns="http://www.w3.org/2000/svg">
</g>
<g xmlns="http://www.w3.org/2000/svg">
</g>
<g xmlns="http://www.w3.org/2000/svg">
</g>
<g xmlns="http://www.w3.org/2000/svg">
</g>
<g xmlns="http://www.w3.org/2000/svg">
</g>
<g xmlns="http://www.w3.org/2000/svg">
</g>
<g xmlns="http://www.w3.org/2000/svg">
</g>
<g xmlns="http://www.w3.org/2000/svg">
</g>
</g></svg>
