<?xml version="1.0" encoding="utf-8"?>
<!-- Generator: Adobe Illustrator 17.0.0, SVG Export Plug-In . SVG Version: 6.00 Build 0)  -->
<!DOCTYPE svg PUBLIC "-//W3C//DTD SVG 1.1//EN" "http://www.w3.org/Graphics/SVG/1.1/DTD/svg11.dtd">
<svg version="1.1" xmlns="http://www.w3.org/2000/svg" xmlns:xlink="http://www.w3.org/1999/xlink" x="0px" y="0px"
	 width="158.434px" height="157.229px" viewBox="0 0 158.434 157.229" enable-background="new 0 0 158.434 157.229"
	 xml:space="preserve">
<g id="Layer_1">
</g>
<g id="Layer_3">
	<g>
		<g>
			<linearGradient id="SVGID_1_" gradientUnits="userSpaceOnUse" x1="379.9351" y1="-82.3864" x2="-37.796" y2="141.2637">
				<stop  offset="0" style="stop-color:#6261AB"/>
				<stop  offset="1" style="stop-color:#4F4588"/>
			</linearGradient>
			<path fill="url(#SVGID_1_)" d="M155.298,9.472v138.285c0,1.639-0.988,3.113-2.507,3.741c-1.536,0.623-3.273,0.263-4.426-0.914
				l-31.578-42.785l-31.573,42.505c-0.788,0.948-1.959,1.394-3.17,1.496c-1.217,0-2.387-0.565-3.158-1.536L28.928,74.827
				l14.998,35.2c0.748,1.496,0.485,3.313-0.651,4.546l-33.126,35.931c-0.788,0.851-1.862,1.297-2.97,1.297
				c-0.485,0-0.994-0.103-1.479-0.286c-1.553-0.605-2.564-2.102-2.564-3.758V9.472c0-1.554,0.885-2.953,2.285-3.638
				c1.394-0.668,3.05-0.503,4.261,0.468l91.685,84.928L77.115,60.383l0,0c0,0-2.776-2.644,0.64-5.197
				c0.006-0.006,0.017-0.011,0.023-0.023L148.77,6.279c1.234-0.948,2.873-1.114,4.266-0.445
				C154.43,6.519,155.298,7.936,155.298,9.472z"/>
		</g>
	</g>
</g>
</svg>
