<svg id="e1k54312uila1" xmlns="http://www.w3.org/2000/svg" xmlns:xlink="http://www.w3.org/1999/xlink" viewBox="0 0 499.712000 499.712000" shape-rendering="geometricPrecision" text-rendering="geometricPrecision"><style><![CDATA[#e1k54312uila4_to {animation: e1k54312uila4_to__to 6000ms linear infinite normal forwards}@keyframes e1k54312uila4_to__to { 0% {transform: translate(181.936001px,238.727997px);animation-timing-function: cubic-bezier(0.420000,0,0.580000,1)} 50% {transform: translate(181.936001px,135.727997px);animation-timing-function: cubic-bezier(0.420000,0,0.580000,1)} 100% {transform: translate(181.936001px,238.727997px)} }]]></style><path id="e1k54312uila2" d="M146.880000,375.528000C273.152000,375.528000,375.504000,273.160000,375.504000,146.888000C375.504000,90.936000,355.344000,39.752000,321.984000,0.008000C425.056000,33.096000,499.696000,129.640000,499.696000,243.704000C499.696000,385.096000,385.088000,499.704000,243.696000,499.704000C129.632000,499.704000,33.088000,425.064000,0,321.992000C39.744000,355.368000,90.944000,375.528000,146.880000,375.528000Z" fill="rgb(255,217,59)" stroke="none" stroke-width="1"/><path id="e1k54312uila3" d="M401.920000,42.776000C436.160000,86.280000,456.736000,141.048000,456.736000,200.728000C456.736000,342.120000,342.128000,456.728000,200.736000,456.728000C141.056000,456.728000,86.288000,436.152000,42.784000,401.912000C89.632000,461.384000,162.128000,499.704000,243.712000,499.704000C385.104000,499.704000,499.712000,385.096000,499.712000,243.704000C499.712000,162.120000,461.392000,89.640000,401.920000,42.776000Z" fill="rgb(244,197,52)" stroke="none" stroke-width="1"/><g id="e1k54312uila4_to" transform="translate(181.936001,238.727997)"><g id="e1k54312uila4" transform="translate(-181.936001,-172.567993)"><polygon id="e1k54312uila5" points="128.128000,99.944000 154.496000,153.400000 213.472000,161.960000 170.800000,203.560000 180.864000,262.296000 128.128000,234.568000 75.376000,262.296000 85.440000,203.560000 42.768000,161.960000 101.744000,153.400000" fill="rgb(255,216,59)" stroke="none" stroke-width="1"/><polygon id="e1k54312uila6" points="276.864000,82.840000 290.528000,110.552000 321.104000,114.984000 298.976000,136.552000 304.208000,166.984000 276.864000,152.616000 249.520000,166.984000 254.752000,136.552000 232.624000,114.984000 263.200000,110.552000" fill="rgb(255,216,59)" stroke="none" stroke-width="1"/></g></g></svg>