<svg id="epcxb6ue00id1" xmlns="http://www.w3.org/2000/svg" xmlns:xlink="http://www.w3.org/1999/xlink" viewBox="0 0 156.391000 156.391000" shape-rendering="geometricPrecision" text-rendering="geometricPrecision"><style><![CDATA[#epcxb6ue00id3_tr {animation: epcxb6ue00id3_tr__tr 9000ms linear infinite normal forwards}@keyframes epcxb6ue00id3_tr__tr { 0% {transform: translate(78.195503px,78.195503px) rotate(0deg)} 100% {transform: translate(78.195503px,78.195503px) rotate(360deg)} }]]></style><g id="epcxb6ue00id2"><g id="epcxb6ue00id3_tr" transform="translate(78.195503,78.195503) rotate(0)"><path id="epcxb6ue00id3" d="M140.796000,92.339000L155.752000,79.502000L156.142000,79.166000L155.752000,78.832000L141.148000,66.296000C139.002000,64.009000,138.589000,62.113000,139.358000,59.175000L145.888000,40.581000L146.060000,40.094000L145.555000,40L126.596000,36.437000C123.656000,35.709000,122.170000,34.059000,121.538000,31.224000L117.887000,11.806000L117.794000,11.300000L117.311000,11.469000L99.121000,17.859000C96.181000,18.466000,94.366000,18.466000,91.756000,15.797000L78.531000,0.390000L78.195000,0L77.861000,0.390000L64.634000,15.798000C62.932000,17.641000,61.281000,18.467000,58.609000,17.406000L39.459000,10.679000L38.975000,10.509000L38.880000,11.014000L35.130000,30.964000C34.798000,33.235000,34.384000,34.555000,30.977000,35.099000L11.558000,38.749000L11.052000,38.844000L11.224000,39.328000L17.603000,57.489000C19.203000,61.617000,18.295000,62.194000,15.610000,64.534000L0.638000,77.385000L0.249000,77.720000L0.638000,78.054000L15.232000,90.583000C17.140000,92.393000,18.047000,94.126000,17.024000,97.738000L10.500000,116.307000L10.330000,116.791000L10.834000,116.886000L29.740000,120.440000C33.146000,121.106000,34.219000,122.920000,34.864000,125.728000L38.501000,145.082000L38.597000,145.588000L39.082000,145.415000L57.190000,139.055000C60.292000,138.267000,62.272000,138.679000,64.321000,141.071000L77.137000,156L77.473000,156.391000L77.808000,156L90.311000,141.435000C92.138000,139.586000,94.119000,138.514000,97.516000,139.624000L116.056000,146.139000L116.545000,146.309000L116.636000,145.803000L120.189000,126.908000C120.850000,123.745000,122.087000,122.673000,125.479000,121.775000L144.833000,118.139000L145.338000,118.041000L145.169000,117.557000L138.798000,99.425000C137.764000,96.271000,138.095000,94.456000,140.796000,92.339000ZM78.196000,131.940000C48.656000,131.940000,24.709000,107.993000,24.709000,78.454000C24.709000,48.913000,48.656000,24.966000,78.196000,24.966000C79.021000,24.966000,79.841000,24.991000,80.656000,25.028000L80.656000,25.028000C109.052000,26.315000,131.683000,49.739000,131.683000,78.454000C131.684000,107.994000,107.736000,131.940000,78.196000,131.940000Z" transform="translate(-78.195503,-78.195503)" fill="rgb(253,214,51)" stroke="none" stroke-width="1"/></g><path id="epcxb6ue00id4" d="M80.657000,25.028000L80.657000,131.878000C79.841000,131.916000,79.022000,131.941000,78.197000,131.941000C107.737000,131.941000,131.685000,107.994000,131.685000,78.455000C131.684000,49.739000,109.053000,26.315000,80.657000,25.028000Z" fill="rgb(242,171,12)" stroke="none" stroke-width="1"/><path id="epcxb6ue00id5" d="M80.657000,25.028000L80.657000,25.028000C79.841000,24.991000,79.022000,24.966000,78.197000,24.966000C48.657000,24.966000,24.710000,48.913000,24.710000,78.454000C24.710000,107.994000,48.657000,131.940000,78.197000,131.940000C79.022000,131.940000,79.842000,131.915000,80.657000,131.877000L80.657000,25.028000Z" fill="rgb(244,148,11)" stroke="none" stroke-width="1"/></g></svg>